<svg width="960" height="304" viewBox="0 0 960 304" fill="none" xmlns="http://www.w3.org/2000/svg">
<g clip-path="url(#clip0_0_247)">
<rect width="960" height="304" fill="#414141"/>
<!-- <rect x="32" y="264" width="56" height="24" rx="11" fill="white"/>
<rect x="104" y="264" width="56" height="24" rx="11" fill="white"/>
<rect x="176" y="264" width="56" height="24" rx="11" fill="white"/>
<rect x="248" y="264" width="56" height="24" rx="11" fill="#FFCC21"/> -->
<path d="M25.321 30V19.0909H29.1349C29.8949 19.0909 30.5217 19.2223 31.0153 19.4851C31.5089 19.7443 31.8764 20.0941 32.1179 20.5344C32.3594 20.9712 32.4801 21.456 32.4801 21.9886C32.4801 22.4574 32.3967 22.8445 32.2298 23.1499C32.0664 23.4553 31.8498 23.6967 31.5799 23.8743C31.3136 24.0518 31.0241 24.1832 30.7116 24.2685V24.375C31.0455 24.3963 31.381 24.5135 31.7184 24.7266C32.0558 24.9396 32.3381 25.245 32.5653 25.6428C32.7926 26.0405 32.9062 26.527 32.9062 27.1023C32.9062 27.6491 32.782 28.141 32.5334 28.5778C32.2848 29.0146 31.8924 29.3608 31.3562 29.6165C30.82 29.8722 30.1222 30 29.2628 30H25.321ZM26.642 28.8281H29.2628C30.1257 28.8281 30.7383 28.6612 31.1005 28.3274C31.4663 27.9901 31.6491 27.5817 31.6491 27.1023C31.6491 26.733 31.555 26.392 31.3668 26.0795C31.1786 25.7635 30.9105 25.5114 30.5625 25.3232C30.2145 25.1314 29.8026 25.0355 29.3267 25.0355H26.642V28.8281ZM26.642 23.8849H29.0923C29.4901 23.8849 29.8487 23.8068 30.1683 23.6506C30.4915 23.4943 30.7472 23.2741 30.9354 22.9901C31.1271 22.706 31.223 22.3722 31.223 21.9886C31.223 21.5092 31.0561 21.1026 30.7223 20.7688C30.3885 20.4315 29.8594 20.2628 29.1349 20.2628H26.642V23.8849ZM44.4314 24.5455C44.4314 25.696 44.2237 26.6903 43.8082 27.5284C43.3927 28.3665 42.8228 29.0128 42.0983 29.4673C41.3739 29.9219 40.5465 30.1491 39.6161 30.1491C38.6857 30.1491 37.8583 29.9219 37.1338 29.4673C36.4094 29.0128 35.8395 28.3665 35.424 27.5284C35.0085 26.6903 34.8007 25.696 34.8007 24.5455C34.8007 23.3949 35.0085 22.4006 35.424 21.5625C35.8395 20.7244 36.4094 20.0781 37.1338 19.6236C37.8583 19.169 38.6857 18.9418 39.6161 18.9418C40.5465 18.9418 41.3739 19.169 42.0983 19.6236C42.8228 20.0781 43.3927 20.7244 43.8082 21.5625C44.2237 22.4006 44.4314 23.3949 44.4314 24.5455ZM43.153 24.5455C43.153 23.6009 42.995 22.8036 42.6789 22.1538C42.3664 21.5039 41.9421 21.0121 41.4059 20.6783C40.8732 20.3445 40.2766 20.1776 39.6161 20.1776C38.9556 20.1776 38.3572 20.3445 37.821 20.6783C37.2883 21.0121 36.864 21.5039 36.5479 22.1538C36.2354 22.8036 36.0792 23.6009 36.0792 24.5455C36.0792 25.4901 36.2354 26.2873 36.5479 26.9371C36.864 27.587 37.2883 28.0788 37.821 28.4126C38.3572 28.7464 38.9556 28.9134 39.6161 28.9134C40.2766 28.9134 40.8732 28.7464 41.4059 28.4126C41.9421 28.0788 42.3664 27.587 42.6789 26.9371C42.995 26.2873 43.153 25.4901 43.153 24.5455ZM50.1691 30H46.8027V19.0909H50.3183C51.3765 19.0909 52.2821 19.3093 53.0349 19.7461C53.7877 20.1793 54.3648 20.8026 54.7661 21.6158C55.1674 22.4254 55.368 23.3949 55.368 24.5241C55.368 25.6605 55.1656 26.6388 54.7608 27.4592C54.3559 28.2759 53.7664 28.9045 52.9923 29.3448C52.2181 29.7816 51.2771 30 50.1691 30ZM48.1237 28.8281H50.0839C50.9859 28.8281 51.7334 28.6541 52.3265 28.3061C52.9195 27.9581 53.3616 27.4627 53.6528 26.82C53.944 26.1772 54.0896 25.4119 54.0896 24.5241C54.0896 23.6435 53.9458 22.8853 53.6581 22.2496C53.3705 21.6104 52.9408 21.1204 52.3691 20.7795C51.7973 20.435 51.0853 20.2628 50.2331 20.2628H48.1237V28.8281ZM56.2837 19.0909H57.7965L60.8221 24.1832H60.9499L63.9755 19.0909H65.4883L61.5465 25.5043V30H60.2255V25.5043L56.2837 19.0909ZM25.321 48V37.0909H29.0071C29.8594 37.0909 30.5589 37.2365 31.1058 37.5277C31.6527 37.8153 32.0575 38.2113 32.3203 38.7156C32.5831 39.2198 32.7145 39.7933 32.7145 40.4361C32.7145 41.0788 32.5831 41.6488 32.3203 42.146C32.0575 42.6431 31.6545 43.0337 31.1112 43.3178C30.5678 43.5984 29.8736 43.7386 29.0284 43.7386H26.0455V42.5455H28.9858C29.5682 42.5455 30.0369 42.4602 30.392 42.2898C30.7507 42.1193 31.0099 41.8778 31.1697 41.5653C31.3331 41.2493 31.4148 40.8729 31.4148 40.4361C31.4148 39.9993 31.3331 39.6175 31.1697 39.2908C31.0064 38.9641 30.7454 38.712 30.3867 38.5344C30.0281 38.3533 29.554 38.2628 28.9645 38.2628H26.642V48H25.321ZM30.456 43.0994L33.1406 48H31.6065L28.9645 43.0994H30.456ZM35.0657 48V37.0909H41.6496V38.2628H36.3868V41.9489H41.3086V43.1207H36.3868V46.8281H41.7348V48H35.0657ZM52.959 40.5H51.638C51.5599 40.12 51.4231 39.7862 51.2278 39.4986C51.0361 39.2109 50.8017 38.9695 50.5247 38.7741C50.2513 38.5753 49.9476 38.4261 49.6138 38.3267C49.28 38.2273 48.932 38.1776 48.5698 38.1776C47.9093 38.1776 47.3109 38.3445 46.7747 38.6783C46.242 39.0121 45.8177 39.5039 45.5016 40.1538C45.1891 40.8036 45.0329 41.6009 45.0329 42.5455C45.0329 43.4901 45.1891 44.2873 45.5016 44.9371C45.8177 45.587 46.242 46.0788 46.7747 46.4126C47.3109 46.7464 47.9093 46.9134 48.5698 46.9134C48.932 46.9134 49.28 46.8636 49.6138 46.7642C49.9476 46.6648 50.2513 46.5174 50.5247 46.3221C50.8017 46.1232 51.0361 45.88 51.2278 45.5923C51.4231 45.3011 51.5599 44.9673 51.638 44.5909H52.959C52.8596 45.1484 52.6785 45.6474 52.4157 46.0877C52.1529 46.5281 51.8262 46.9027 51.4356 47.2116C51.0449 47.517 50.6064 47.7496 50.1199 47.9094C49.6369 48.0692 49.1202 48.1491 48.5698 48.1491C47.6394 48.1491 46.812 47.9219 46.0876 47.4673C45.3631 47.0128 44.7932 46.3665 44.3777 45.5284C43.9622 44.6903 43.7545 43.696 43.7545 42.5455C43.7545 41.3949 43.9622 40.4006 44.3777 39.5625C44.7932 38.7244 45.3631 38.0781 46.0876 37.6236C46.812 37.169 47.6394 36.9418 48.5698 36.9418C49.1202 36.9418 49.6369 37.0217 50.1199 37.1815C50.6064 37.3413 51.0449 37.5756 51.4356 37.8846C51.8262 38.19 52.1529 38.5629 52.4157 39.0032C52.6785 39.44 52.8596 39.9389 52.959 40.5ZM64.4482 42.5455C64.4482 43.696 64.2405 44.6903 63.825 45.5284C63.4095 46.3665 62.8396 47.0128 62.1151 47.4673C61.3907 47.9219 60.5633 48.1491 59.6329 48.1491C58.7025 48.1491 57.8751 47.9219 57.1506 47.4673C56.4262 47.0128 55.8563 46.3665 55.4408 45.5284C55.0253 44.6903 54.8175 43.696 54.8175 42.5455C54.8175 41.3949 55.0253 40.4006 55.4408 39.5625C55.8563 38.7244 56.4262 38.0781 57.1506 37.6236C57.8751 37.169 58.7025 36.9418 59.6329 36.9418C60.5633 36.9418 61.3907 37.169 62.1151 37.6236C62.8396 38.0781 63.4095 38.7244 63.825 39.5625C64.2405 40.4006 64.4482 41.3949 64.4482 42.5455ZM63.1698 42.5455C63.1698 41.6009 63.0118 40.8036 62.6957 40.1538C62.3832 39.5039 61.9589 39.0121 61.4227 38.6783C60.89 38.3445 60.2934 38.1776 59.6329 38.1776C58.9724 38.1776 58.374 38.3445 57.8378 38.6783C57.3051 39.0121 56.8808 39.5039 56.5647 40.1538C56.2522 40.8036 56.096 41.6009 56.096 42.5455C56.096 43.4901 56.2522 44.2873 56.5647 44.9371C56.8808 45.587 57.3051 46.0788 57.8378 46.4126C58.374 46.7464 58.9724 46.9134 59.6329 46.9134C60.2934 46.9134 60.89 46.7464 61.4227 46.4126C61.9589 46.0788 62.3832 45.587 62.6957 44.9371C63.0118 44.2873 63.1698 43.4901 63.1698 42.5455ZM66.8195 48V37.0909H70.5055C71.3578 37.0909 72.0574 37.2365 72.6043 37.5277C73.1511 37.8153 73.556 38.2113 73.8187 38.7156C74.0815 39.2198 74.2129 39.7933 74.2129 40.4361C74.2129 41.0788 74.0815 41.6488 73.8187 42.146C73.556 42.6431 73.1529 43.0337 72.6096 43.3178C72.0663 43.5984 71.372 43.7386 70.5268 43.7386H67.5439V42.5455H70.4842C71.0666 42.5455 71.5354 42.4602 71.8905 42.2898C72.2491 42.1193 72.5084 41.8778 72.6682 41.5653C72.8315 41.2493 72.9132 40.8729 72.9132 40.4361C72.9132 39.9993 72.8315 39.6175 72.6682 39.2908C72.5048 38.9641 72.2438 38.712 71.8852 38.5344C71.5265 38.3533 71.0524 38.2628 70.4629 38.2628H68.1405V48H66.8195ZM71.9544 43.0994L74.6391 48H73.105L70.4629 43.0994H71.9544ZM79.9307 48H76.5642V37.0909H80.0798C81.1381 37.0909 82.0436 37.3093 82.7964 37.7461C83.5493 38.1793 84.1263 38.8026 84.5276 39.6158C84.9289 40.4254 85.1295 41.3949 85.1295 42.5241C85.1295 43.6605 84.9271 44.6388 84.5223 45.4592C84.1175 46.2759 83.528 46.9045 82.7538 47.3448C81.9797 47.7816 81.0386 48 79.9307 48ZM77.8852 46.8281H79.8454C80.7474 46.8281 81.4949 46.6541 82.088 46.3061C82.681 45.9581 83.1231 45.4627 83.4143 44.82C83.7055 44.1772 83.8511 43.4119 83.8511 42.5241C83.8511 41.6435 83.7073 40.8853 83.4197 40.2496C83.132 39.6104 82.7023 39.1204 82.1306 38.7795C81.5589 38.435 80.8469 38.2628 79.9946 38.2628H77.8852V46.8281Z" fill="white"/>
<path d="M121.656 38V36.5938L126.937 30.8125C127.557 30.1354 128.068 29.5469 128.469 29.0469C128.87 28.5417 129.167 28.0677 129.359 27.625C129.557 27.1771 129.656 26.7083 129.656 26.2187C129.656 25.6563 129.521 25.1693 129.25 24.7578C128.984 24.3464 128.62 24.0286 128.156 23.8047C127.693 23.5807 127.172 23.4687 126.594 23.4687C125.979 23.4687 125.443 23.5964 124.984 23.8516C124.531 24.1016 124.18 24.4531 123.93 24.9062C123.685 25.3594 123.563 25.8906 123.563 26.5H121.719C121.719 25.5625 121.935 24.7396 122.367 24.0312C122.799 23.3229 123.388 22.7708 124.133 22.375C124.883 21.9792 125.724 21.7812 126.656 21.7812C127.594 21.7812 128.424 21.9792 129.148 22.375C129.872 22.7708 130.44 23.3047 130.852 23.9766C131.263 24.6484 131.469 25.3958 131.469 26.2187C131.469 26.8073 131.362 27.3828 131.148 27.9453C130.94 28.5026 130.576 29.125 130.055 29.8125C129.539 30.4948 128.823 31.3281 127.906 32.3125L124.313 36.1562V36.2812H131.75V38H121.656ZM140.305 38.2187C139.128 38.2187 138.126 37.8984 137.297 37.2578C136.469 36.612 135.837 35.6771 135.399 34.4531C134.962 33.224 134.743 31.7396 134.743 30C134.743 28.2708 134.962 26.7943 135.399 25.5703C135.842 24.3411 136.477 23.4036 137.305 22.7578C138.139 22.1068 139.139 21.7812 140.305 21.7812C141.472 21.7812 142.469 22.1068 143.297 22.7578C144.131 23.4036 144.766 24.3411 145.204 25.5703C145.646 26.7943 145.868 28.2708 145.868 30C145.868 31.7396 145.649 33.224 145.212 34.4531C144.774 35.6771 144.141 36.612 143.313 37.2578C142.485 37.8984 141.482 38.2187 140.305 38.2187ZM140.305 36.5C141.472 36.5 142.378 35.9375 143.024 34.8125C143.67 33.6875 143.993 32.0833 143.993 30C143.993 28.6146 143.844 27.4349 143.548 26.4609C143.256 25.487 142.834 24.7448 142.282 24.2344C141.735 23.724 141.076 23.4687 140.305 23.4687C139.149 23.4687 138.245 24.0391 137.594 25.1797C136.943 26.3151 136.618 27.9219 136.618 30C136.618 31.3854 136.764 32.5625 137.055 33.5312C137.347 34.5 137.766 35.237 138.313 35.7422C138.865 36.2474 139.529 36.5 140.305 36.5ZM148.947 38V36.5938L154.228 30.8125C154.848 30.1354 155.358 29.5469 155.759 29.0469C156.16 28.5417 156.457 28.0677 156.65 27.625C156.848 27.1771 156.947 26.7083 156.947 26.2187C156.947 25.6563 156.811 25.1693 156.54 24.7578C156.275 24.3464 155.91 24.0286 155.447 23.8047C154.983 23.5807 154.462 23.4687 153.884 23.4687C153.269 23.4687 152.733 23.5964 152.275 23.8516C151.822 24.1016 151.47 24.4531 151.22 24.9062C150.975 25.3594 150.853 25.8906 150.853 26.5H149.009C149.009 25.5625 149.225 24.7396 149.657 24.0312C150.09 23.3229 150.678 22.7708 151.423 22.375C152.173 21.9792 153.014 21.7812 153.947 21.7812C154.884 21.7812 155.715 21.9792 156.439 22.375C157.163 22.7708 157.73 23.3047 158.142 23.9766C158.553 24.6484 158.759 25.3958 158.759 26.2187C158.759 26.8073 158.652 27.3828 158.439 27.9453C158.23 28.5026 157.866 29.125 157.345 29.8125C156.829 30.4948 156.113 31.3281 155.197 32.3125L151.603 36.1562V36.2812H159.04V38H148.947ZM168.002 22V38H166.064V24.0312H165.971L162.064 26.625V24.6562L166.064 22H168.002ZM173.143 38.125C172.758 38.125 172.427 37.987 172.151 37.7109C171.875 37.4349 171.737 37.1042 171.737 36.7187C171.737 36.3333 171.875 36.0026 172.151 35.7266C172.427 35.4505 172.758 35.3125 173.143 35.3125C173.529 35.3125 173.859 35.4505 174.135 35.7266C174.411 36.0026 174.549 36.3333 174.549 36.7187C174.549 36.974 174.484 37.2083 174.354 37.4219C174.229 37.6354 174.06 37.8073 173.846 37.9375C173.638 38.0625 173.404 38.125 173.143 38.125ZM182.597 38.2187C181.42 38.2187 180.417 37.8984 179.589 37.2578C178.761 36.612 178.128 35.6771 177.691 34.4531C177.253 33.224 177.034 31.7396 177.034 30C177.034 28.2708 177.253 26.7943 177.691 25.5703C178.133 24.3411 178.769 23.4036 179.597 22.7578C180.43 22.1068 181.43 21.7812 182.597 21.7812C183.764 21.7812 184.761 22.1068 185.589 22.7578C186.422 23.4036 187.058 24.3411 187.495 25.5703C187.938 26.7943 188.159 28.2708 188.159 30C188.159 31.7396 187.941 33.224 187.503 34.4531C187.066 35.6771 186.433 36.612 185.605 37.2578C184.777 37.8984 183.774 38.2187 182.597 38.2187ZM182.597 36.5C183.764 36.5 184.67 35.9375 185.316 34.8125C185.961 33.6875 186.284 32.0833 186.284 30C186.284 28.6146 186.136 27.4349 185.839 26.4609C185.547 25.487 185.126 24.7448 184.573 24.2344C184.027 23.724 183.368 23.4687 182.597 23.4687C181.441 23.4687 180.537 24.0391 179.886 25.1797C179.235 26.3151 178.909 27.9219 178.909 30C178.909 31.3854 179.055 32.5625 179.347 33.5312C179.639 34.5 180.058 35.237 180.605 35.7422C181.157 36.2474 181.821 36.5 182.597 36.5ZM196.238 38.2187C195.321 38.2187 194.496 38.0365 193.762 37.6719C193.027 37.3073 192.439 36.8073 191.996 36.1719C191.553 35.5365 191.311 34.8125 191.269 34H193.144C193.217 34.724 193.545 35.3229 194.129 35.7969C194.717 36.2656 195.42 36.5 196.238 36.5C196.894 36.5 197.478 36.3464 197.988 36.0391C198.504 35.7318 198.907 35.3099 199.199 34.7734C199.496 34.2318 199.644 33.6198 199.644 32.9375C199.644 32.2396 199.491 31.6172 199.183 31.0703C198.881 30.5182 198.465 30.0833 197.933 29.7656C197.402 29.4479 196.795 29.2865 196.113 29.2812C195.624 29.276 195.121 29.3516 194.605 29.5078C194.09 29.6589 193.665 29.8542 193.332 30.0938L191.519 29.875L192.488 22H200.801V23.7187H194.113L193.551 28.4375H193.644C193.973 28.1771 194.384 27.9609 194.879 27.7891C195.374 27.6172 195.889 27.5312 196.426 27.5312C197.405 27.5312 198.277 27.7656 199.043 28.2344C199.814 28.6979 200.418 29.3333 200.855 30.1406C201.298 30.9479 201.519 31.8698 201.519 32.9062C201.519 33.9271 201.29 34.8385 200.832 35.6406C200.379 36.4375 199.754 37.0677 198.957 37.5312C198.16 37.9896 197.254 38.2187 196.238 38.2187ZM205.506 38.125C205.121 38.125 204.79 37.987 204.514 37.7109C204.238 37.4349 204.1 37.1042 204.1 36.7187C204.1 36.3333 204.238 36.0026 204.514 35.7266C204.79 35.4505 205.121 35.3125 205.506 35.3125C205.892 35.3125 206.222 35.4505 206.499 35.7266C206.775 36.0026 206.913 36.3333 206.913 36.7187C206.913 36.974 206.847 37.2083 206.717 37.4219C206.592 37.6354 206.423 37.8073 206.209 37.9375C206.001 38.0625 205.767 38.125 205.506 38.125ZM210.3 38V36.5938L215.581 30.8125C216.201 30.1354 216.711 29.5469 217.112 29.0469C217.513 28.5417 217.81 28.0677 218.003 27.625C218.201 27.1771 218.3 26.7083 218.3 26.2187C218.3 25.6563 218.165 25.1693 217.894 24.7578C217.628 24.3464 217.263 24.0286 216.8 23.8047C216.336 23.5807 215.816 23.4687 215.237 23.4687C214.623 23.4687 214.086 23.5964 213.628 23.8516C213.175 24.1016 212.823 24.4531 212.573 24.9062C212.329 25.3594 212.206 25.8906 212.206 26.5H210.362C210.362 25.5625 210.579 24.7396 211.011 24.0312C211.443 23.3229 212.032 22.7708 212.776 22.375C213.526 21.9792 214.368 21.7812 215.3 21.7812C216.237 21.7812 217.068 21.9792 217.792 22.375C218.516 22.7708 219.084 23.3047 219.495 23.9766C219.907 24.6484 220.112 25.3958 220.112 26.2187C220.112 26.8073 220.006 27.3828 219.792 27.9453C219.584 28.5026 219.219 29.125 218.698 29.8125C218.183 30.4948 217.467 31.3281 216.55 32.3125L212.956 36.1562V36.2812H220.394V38H210.3ZM229.355 22V38H227.418V24.0312H227.324L223.418 26.625V24.6562L227.418 22H229.355Z" fill="white"/>
<path d="M55.625 280.325C55.625 281 55.595 281.465 55.535 281.915H56.63V280.94H64.37V281.915H65.465C65.405 281.45 65.375 281.03 65.375 280.31V270.695C65.375 270.125 65.39 269.75 65.45 269.315C65.015 269.375 64.595 269.39 63.905 269.39H57.155C56.465 269.39 56.03 269.375 55.55 269.315C55.61 269.75 55.625 270.185 55.625 270.785V280.325ZM56.63 270.305H64.37V274.505H56.63V270.305ZM56.63 275.42H64.37V280.025H56.63V275.42Z" fill="#FFCC21"/>
<path d="M133.97 273.365H132.98C132.32 273.365 131.99 273.35 131.63 273.29V274.175C132.095 274.115 132.5 274.1 132.98 274.1H136.01C136.52 274.1 136.88 274.115 137.33 274.175V273.29C136.97 273.35 136.685 273.365 135.995 273.365H134.795V272.03H135.59C136.16 272.03 136.55 272.045 136.895 272.09V271.235C136.505 271.28 136.085 271.31 135.59 271.31H134.795C134.795 270.74 134.81 270.455 134.87 270.185H133.895C133.955 270.515 133.97 270.74 133.97 271.31H133.34C132.845 271.31 132.38 271.28 131.99 271.235V272.09C132.365 272.045 132.77 272.03 133.325 272.03H133.97V273.365ZM131.315 269.84H137.675V278.615C137.675 278.96 137.585 279.05 137.18 279.05C136.58 279.05 136.055 279.005 135.5 278.93C135.635 279.275 135.665 279.44 135.695 279.86C136.115 279.875 136.565 279.89 136.985 279.89C138.215 279.89 138.575 279.65 138.575 278.795V270.395C138.575 269.69 138.59 269.36 138.635 268.97C138.26 269.015 137.93 269.03 137.18 269.03H131.765C131.045 269.03 130.745 269.015 130.325 268.97C130.385 269.42 130.415 269.915 130.415 270.68C130.415 273.26 130.37 274.85 130.235 276.005C130.085 277.46 129.905 278.18 129.44 279.185C129.8 279.365 130.01 279.5 130.265 279.755C130.7 278.72 130.88 278.075 131.03 277.025C131.225 275.705 131.315 273.65 131.315 270.56V269.84ZM126.11 269.45C127.145 270.425 127.595 270.95 128.45 272.18L129.215 271.505C128.375 270.41 127.835 269.825 126.8 268.85L126.11 269.45ZM133.055 278.885V278.135H135.635C136.025 278.135 136.31 278.15 136.595 278.18C136.565 277.925 136.55 277.73 136.55 277.37V275.87C136.55 275.54 136.565 275.3 136.595 274.97C136.34 275 136.01 275.015 135.545 275.015H133.205C132.845 275.015 132.47 275 132.2 274.97C132.23 275.315 132.245 275.585 132.245 275.93V277.79C132.245 278.285 132.23 278.63 132.185 278.885H133.055ZM133.055 275.75H135.755V277.385H133.055V275.75ZM125.81 275.48C126.185 275.42 126.41 275.405 126.92 275.405H127.91V279.02C127.07 279.845 126.17 280.52 125.51 280.835L126.035 281.78C126.35 281.51 126.365 281.51 126.575 281.345C127.295 280.775 127.745 280.385 128.33 279.785C128.795 280.49 129.26 280.91 129.905 281.21C130.79 281.63 131.66 281.735 134.225 281.735C135.995 281.735 137.63 281.705 139.25 281.63C139.34 281.15 139.385 281.015 139.595 280.55C138.05 280.76 136.04 280.85 133.07 280.85C131.255 280.85 130.355 280.64 129.56 280.01C129.2 279.725 129.05 279.5 128.84 279.035V276.08C128.84 275.345 128.855 274.925 128.915 274.49C128.525 274.55 128.195 274.565 127.76 274.565H126.98C126.41 274.565 126.17 274.55 125.81 274.49V275.48Z" fill="#FFCC21"/>
<path d="M208.13 277.175V280.49C208.13 280.865 208.01 280.955 207.575 280.955C206.855 280.955 206.18 280.91 205.43 280.805C205.565 281.195 205.625 281.435 205.67 281.825C206.345 281.87 206.975 281.885 207.47 281.885C208.145 281.885 208.43 281.84 208.67 281.69C208.955 281.495 209.09 281.18 209.09 280.64V270.77C209.09 270.005 209.105 269.63 209.15 269.225C208.64 269.285 208.25 269.3 207.59 269.3H201.95C201.305 269.3 200.915 269.285 200.375 269.225C200.42 269.795 200.435 270.395 200.435 271.775C200.435 275.105 200.27 276.95 199.85 278.375C199.49 279.59 199.01 280.385 198.08 281.315C198.425 281.555 198.635 281.765 198.905 282.11C199.745 281.15 200.165 280.49 200.555 279.5C200.84 278.795 201.035 278.045 201.17 277.175H208.13ZM201.275 276.275C201.395 275 201.425 274.43 201.44 273.605H208.13V276.275H201.275ZM201.44 272.705V272.345L201.455 270.215H208.13V272.705H201.44Z" fill="#FFCC21"/>
<path d="M272.48 277.385H271.34C270.68 277.385 270.26 277.355 269.825 277.295V278.375C270.26 278.315 270.725 278.285 271.34 278.285H276.755V280.76C276.755 281.45 276.74 281.78 276.665 282.155H277.85C277.775 281.765 277.745 281.405 277.745 280.76V278.285H281.525C282.14 278.285 282.605 278.315 283.04 278.375V277.295C282.62 277.355 282.2 277.385 281.525 277.385H277.745V274.445H280.475C281.045 274.445 281.405 274.46 281.795 274.505V273.515C281.405 273.575 281.075 273.59 280.46 273.59H277.745V271.145H281.135C281.75 271.145 282.11 271.16 282.485 271.22V270.2C282.11 270.26 281.795 270.275 281.135 270.275H273.695L274.265 269.06C274.355 268.88 274.4 268.775 274.46 268.655L273.395 268.355C273.32 268.67 273.215 269.015 273.02 269.45C272.315 271.13 271.505 272.225 270.02 273.485C270.35 273.71 270.5 273.86 270.74 274.205C271.745 273.305 272.465 272.42 273.23 271.145H276.755V273.59H273.5C273.08 273.59 272.75 273.575 272.435 273.545C272.465 273.845 272.48 274.1 272.48 274.43V277.385ZM273.455 277.385V274.445H276.755V277.385H273.455Z" fill="white"/>
<g clip-path="url(#clip1_0_247)">
<path d="M593.183 244.273V253H592.126V245.381H592.075L589.944 246.795V245.722L592.126 244.273H593.183Z" fill="white"/>
<path d="M602.936 249.96V251.728C602.936 251.928 602.872 251.976 602.64 251.976C602.256 251.976 601.896 251.952 601.496 251.896C601.568 252.104 601.6 252.232 601.624 252.44C601.984 252.464 602.32 252.472 602.584 252.472C602.944 252.472 603.096 252.448 603.224 252.368C603.376 252.264 603.448 252.096 603.448 251.808V246.544C603.448 246.136 603.456 245.936 603.48 245.72C603.208 245.752 603 245.76 602.648 245.76H599.64C599.296 245.76 599.088 245.752 598.8 245.72C598.824 246.024 598.832 246.344 598.832 247.08C598.832 248.856 598.744 249.84 598.52 250.6C598.328 251.248 598.072 251.672 597.576 252.168C597.76 252.296 597.872 252.408 598.016 252.592C598.464 252.08 598.688 251.728 598.896 251.2C599.048 250.824 599.152 250.424 599.224 249.96H602.936ZM599.28 249.48C599.344 248.8 599.36 248.496 599.368 248.056H602.936V249.48H599.28ZM599.368 247.576V247.384L599.376 246.248H602.936V247.576H599.368Z" fill="white"/>
<path d="M899.98 253.119C899.48 253.119 899.03 253.02 898.629 252.821C898.229 252.622 897.908 252.349 897.666 252.003C897.425 251.656 897.293 251.261 897.27 250.818H898.293C898.333 251.213 898.512 251.54 898.83 251.798C899.151 252.054 899.534 252.182 899.98 252.182C900.338 252.182 900.656 252.098 900.935 251.93C901.216 251.763 901.436 251.533 901.595 251.24C901.757 250.945 901.838 250.611 901.838 250.239C901.838 249.858 901.754 249.518 901.587 249.22C901.422 248.919 901.195 248.682 900.905 248.509C900.615 248.335 900.284 248.247 899.912 248.244C899.645 248.241 899.371 248.283 899.09 248.368C898.808 248.45 898.577 248.557 898.395 248.688L897.406 248.568L897.935 244.273H902.469V245.21H898.821L898.514 247.784H898.566C898.744 247.642 898.969 247.524 899.239 247.43C899.509 247.337 899.79 247.29 900.083 247.29C900.617 247.29 901.093 247.418 901.51 247.673C901.931 247.926 902.26 248.273 902.499 248.713C902.74 249.153 902.861 249.656 902.861 250.222C902.861 250.778 902.736 251.276 902.486 251.713C902.239 252.148 901.898 252.491 901.463 252.744C901.029 252.994 900.534 253.119 899.98 253.119Z" fill="white"/>
<path d="M910.936 249.96V251.728C910.936 251.928 910.872 251.976 910.64 251.976C910.256 251.976 909.896 251.952 909.496 251.896C909.568 252.104 909.6 252.232 909.624 252.44C909.984 252.464 910.32 252.472 910.584 252.472C910.944 252.472 911.096 252.448 911.224 252.368C911.376 252.264 911.448 252.096 911.448 251.808V246.544C911.448 246.136 911.456 245.936 911.48 245.72C911.208 245.752 911 245.76 910.648 245.76H907.64C907.296 245.76 907.088 245.752 906.8 245.72C906.824 246.024 906.832 246.344 906.832 247.08C906.832 248.856 906.744 249.84 906.52 250.6C906.328 251.248 906.072 251.672 905.576 252.168C905.76 252.296 905.872 252.408 906.016 252.592C906.464 252.08 906.688 251.728 906.896 251.2C907.048 250.824 907.152 250.424 907.224 249.96H910.936ZM907.28 249.48C907.344 248.8 907.36 248.496 907.368 248.056H910.936V249.48H907.28ZM907.368 247.576V247.384L907.376 246.248H910.936V247.576H907.368Z" fill="white"/>
<path d="M666.271 253V252.233L669.151 249.08C669.489 248.71 669.768 248.389 669.987 248.116C670.205 247.841 670.367 247.582 670.472 247.341C670.58 247.097 670.634 246.841 670.634 246.574C670.634 246.267 670.56 246.001 670.413 245.777C670.268 245.553 670.069 245.379 669.816 245.257C669.563 245.135 669.279 245.074 668.964 245.074C668.629 245.074 668.336 245.143 668.086 245.283C667.839 245.419 667.647 245.611 667.511 245.858C667.377 246.105 667.31 246.395 667.31 246.727H666.305C666.305 246.216 666.423 245.767 666.658 245.381C666.894 244.994 667.215 244.693 667.621 244.477C668.031 244.261 668.489 244.153 668.998 244.153C669.509 244.153 669.962 244.261 670.357 244.477C670.752 244.693 671.062 244.984 671.286 245.351C671.511 245.717 671.623 246.125 671.623 246.574C671.623 246.895 671.565 247.209 671.448 247.516C671.335 247.82 671.136 248.159 670.852 248.534C670.57 248.906 670.18 249.361 669.68 249.898L667.719 251.994V252.062H671.776V253H666.271Z" fill="white"/>
<path d="M679.936 249.96V251.728C679.936 251.928 679.872 251.976 679.64 251.976C679.256 251.976 678.896 251.952 678.496 251.896C678.568 252.104 678.6 252.232 678.624 252.44C678.984 252.464 679.32 252.472 679.584 252.472C679.944 252.472 680.096 252.448 680.224 252.368C680.376 252.264 680.448 252.096 680.448 251.808V246.544C680.448 246.136 680.456 245.936 680.48 245.72C680.208 245.752 680 245.76 679.648 245.76H676.64C676.296 245.76 676.088 245.752 675.8 245.72C675.824 246.024 675.832 246.344 675.832 247.08C675.832 248.856 675.744 249.84 675.52 250.6C675.328 251.248 675.072 251.672 674.576 252.168C674.76 252.296 674.872 252.408 675.016 252.592C675.464 252.08 675.688 251.728 675.896 251.2C676.048 250.824 676.152 250.424 676.224 249.96H679.936ZM676.28 249.48C676.344 248.8 676.36 248.496 676.368 248.056H679.936V249.48H676.28ZM676.368 247.576V247.384L676.376 246.248H679.936V247.576H676.368Z" fill="white"/>
<path d="M50.057 253.119C49.699 253.114 49.3411 253.045 48.9831 252.915C48.6252 252.784 48.2985 252.564 48.003 252.254C47.7076 251.942 47.4703 251.52 47.2914 250.989C47.1124 250.455 47.0229 249.784 47.0229 248.977C47.0229 248.205 47.0953 247.52 47.2402 246.923C47.3851 246.324 47.5953 245.82 47.8709 245.411C48.1465 244.999 48.4789 244.686 48.8681 244.473C49.2601 244.26 49.7019 244.153 50.1934 244.153C50.682 244.153 51.1167 244.251 51.4973 244.447C51.8809 244.641 52.1934 244.911 52.4348 245.257C52.6763 245.604 52.8326 246.003 52.9036 246.455H51.8638C51.7672 246.062 51.5797 245.737 51.3013 245.479C51.0229 245.22 50.6536 245.091 50.1934 245.091C49.5172 245.091 48.9846 245.385 48.5953 245.973C48.209 246.561 48.0144 247.386 48.0115 248.449H48.0797C48.2388 248.207 48.4277 248.001 48.6465 247.831C48.8681 247.658 49.1124 247.524 49.3794 247.43C49.6465 247.337 49.9292 247.29 50.2275 247.29C50.7275 247.29 51.1848 247.415 51.5996 247.665C52.0144 247.912 52.3468 248.254 52.5968 248.692C52.8468 249.126 52.9718 249.625 52.9718 250.188C52.9718 250.727 52.851 251.222 52.6096 251.67C52.3681 252.116 52.0286 252.472 51.5911 252.736C51.1564 252.997 50.6451 253.125 50.057 253.119ZM50.057 252.182C50.415 252.182 50.736 252.092 51.0201 251.913C51.307 251.734 51.5328 251.494 51.6976 251.193C51.8652 250.892 51.949 250.557 51.949 250.188C51.949 249.827 51.8681 249.499 51.7061 249.203C51.5471 248.905 51.3269 248.668 51.0456 248.491C50.7672 248.315 50.449 248.227 50.0911 248.227C49.8212 248.227 49.5698 248.281 49.3368 248.389C49.1039 248.494 48.8993 248.639 48.7232 248.824C48.5499 249.009 48.4135 249.22 48.3141 249.459C48.2147 249.695 48.165 249.943 48.165 250.205C48.165 250.551 48.2459 250.875 48.4078 251.176C48.5726 251.477 48.7971 251.72 49.0811 251.905C49.3681 252.089 49.6934 252.182 50.057 252.182Z" fill="white"/>
<path d="M60.936 249.96V251.728C60.936 251.928 60.872 251.976 60.64 251.976C60.256 251.976 59.896 251.952 59.496 251.896C59.568 252.104 59.6 252.232 59.624 252.44C59.984 252.464 60.32 252.472 60.584 252.472C60.944 252.472 61.096 252.448 61.224 252.368C61.376 252.264 61.448 252.096 61.448 251.808V246.544C61.448 246.136 61.456 245.936 61.48 245.72C61.208 245.752 61 245.76 60.648 245.76H57.64C57.296 245.76 57.088 245.752 56.8 245.72C56.824 246.024 56.832 246.344 56.832 247.08C56.832 248.856 56.744 249.84 56.52 250.6C56.328 251.248 56.072 251.672 55.576 252.168C55.76 252.296 55.872 252.408 56.016 252.592C56.464 252.08 56.688 251.728 56.896 251.2C57.048 250.824 57.152 250.424 57.224 249.96H60.936ZM57.28 249.48C57.344 248.8 57.36 248.496 57.368 248.056H60.936V249.48H57.28ZM57.368 247.576V247.384L57.376 246.248H60.936V247.576H57.368Z" fill="white"/>
<path d="M280.938 244.153C281.296 244.156 281.654 244.224 282.012 244.358C282.369 244.491 282.696 244.713 282.992 245.023C283.287 245.33 283.524 245.749 283.703 246.28C283.882 246.811 283.972 247.477 283.972 248.278C283.972 249.054 283.898 249.743 283.75 250.345C283.605 250.945 283.395 251.45 283.119 251.862C282.847 252.274 282.514 252.587 282.122 252.8C281.733 253.013 281.293 253.119 280.801 253.119C280.313 253.119 279.877 253.023 279.493 252.83C279.112 252.634 278.8 252.362 278.556 252.016C278.314 251.666 278.159 251.261 278.091 250.801H279.131C279.225 251.202 279.411 251.533 279.689 251.794C279.97 252.053 280.341 252.182 280.801 252.182C281.475 252.182 282.006 251.888 282.395 251.3C282.787 250.712 282.983 249.881 282.983 248.807H282.915C282.756 249.045 282.567 249.251 282.348 249.425C282.129 249.598 281.887 249.732 281.619 249.825C281.352 249.919 281.068 249.966 280.767 249.966C280.267 249.966 279.808 249.842 279.391 249.595C278.976 249.345 278.644 249.003 278.394 248.568C278.146 248.131 278.023 247.631 278.023 247.068C278.023 246.534 278.142 246.045 278.381 245.602C278.622 245.156 278.96 244.801 279.395 244.537C279.833 244.273 280.347 244.145 280.938 244.153ZM280.938 245.091C280.58 245.091 280.257 245.18 279.97 245.359C279.686 245.536 279.46 245.774 279.293 246.075C279.128 246.374 279.046 246.705 279.046 247.068C279.046 247.432 279.125 247.763 279.284 248.061C279.446 248.357 279.666 248.592 279.945 248.768C280.226 248.942 280.546 249.028 280.904 249.028C281.173 249.028 281.425 248.976 281.658 248.871C281.891 248.763 282.094 248.616 282.267 248.432C282.443 248.244 282.581 248.033 282.681 247.797C282.78 247.558 282.83 247.31 282.83 247.051C282.83 246.71 282.747 246.391 282.583 246.092C282.421 245.794 282.196 245.553 281.909 245.368C281.625 245.183 281.301 245.091 280.938 245.091Z" fill="white"/>
<path d="M291.936 249.96V251.728C291.936 251.928 291.872 251.976 291.64 251.976C291.256 251.976 290.896 251.952 290.496 251.896C290.568 252.104 290.6 252.232 290.624 252.44C290.984 252.464 291.32 252.472 291.584 252.472C291.944 252.472 292.096 252.448 292.224 252.368C292.376 252.264 292.448 252.096 292.448 251.808V246.544C292.448 246.136 292.456 245.936 292.48 245.72C292.208 245.752 292 245.76 291.648 245.76H288.64C288.296 245.76 288.088 245.752 287.8 245.72C287.824 246.024 287.832 246.344 287.832 247.08C287.832 248.856 287.744 249.84 287.52 250.6C287.328 251.248 287.072 251.672 286.576 252.168C286.76 252.296 286.872 252.408 287.016 252.592C287.464 252.08 287.688 251.728 287.896 251.2C288.048 250.824 288.152 250.424 288.224 249.96H291.936ZM288.28 249.48C288.344 248.8 288.36 248.496 288.368 248.056H291.936V249.48H288.28ZM288.368 247.576V247.384L288.376 246.248H291.936V247.576H288.368Z" fill="white"/>
<path d="M746.032 253.119C745.469 253.119 744.968 253.023 744.528 252.83C744.09 252.636 743.742 252.368 743.484 252.024C743.228 251.678 743.089 251.276 743.066 250.818H744.14C744.163 251.099 744.259 251.342 744.43 251.547C744.6 251.749 744.823 251.905 745.099 252.016C745.374 252.126 745.68 252.182 746.015 252.182C746.39 252.182 746.722 252.116 747.012 251.986C747.302 251.855 747.529 251.673 747.694 251.44C747.859 251.207 747.941 250.938 747.941 250.631C747.941 250.31 747.862 250.027 747.702 249.783C747.543 249.536 747.31 249.342 747.004 249.203C746.697 249.064 746.322 248.994 745.879 248.994H745.18V248.057H745.879C746.225 248.057 746.529 247.994 746.79 247.869C747.055 247.744 747.261 247.568 747.408 247.341C747.559 247.114 747.634 246.847 747.634 246.54C747.634 246.244 747.569 245.987 747.438 245.768C747.308 245.55 747.123 245.379 746.884 245.257C746.648 245.135 746.37 245.074 746.049 245.074C745.748 245.074 745.464 245.129 745.197 245.24C744.933 245.348 744.717 245.506 744.549 245.713C744.381 245.918 744.29 246.165 744.276 246.455H743.254C743.271 245.997 743.408 245.597 743.667 245.253C743.925 244.906 744.263 244.636 744.681 244.443C745.102 244.25 745.563 244.153 746.066 244.153C746.606 244.153 747.069 244.263 747.455 244.482C747.842 244.697 748.138 244.983 748.346 245.338C748.553 245.693 748.657 246.077 748.657 246.489C748.657 246.98 748.528 247.399 748.269 247.746C748.013 248.092 747.665 248.332 747.225 248.466V248.534C747.776 248.625 748.207 248.859 748.516 249.237C748.826 249.612 748.981 250.077 748.981 250.631C748.981 251.105 748.852 251.531 748.593 251.909C748.337 252.284 747.988 252.58 747.545 252.795C747.102 253.011 746.597 253.119 746.032 253.119Z" fill="white"/>
<path d="M756.936 249.96V251.728C756.936 251.928 756.872 251.976 756.64 251.976C756.256 251.976 755.896 251.952 755.496 251.896C755.568 252.104 755.6 252.232 755.624 252.44C755.984 252.464 756.32 252.472 756.584 252.472C756.944 252.472 757.096 252.448 757.224 252.368C757.376 252.264 757.448 252.096 757.448 251.808V246.544C757.448 246.136 757.456 245.936 757.48 245.72C757.208 245.752 757 245.76 756.648 245.76H753.64C753.296 245.76 753.088 245.752 752.8 245.72C752.824 246.024 752.832 246.344 752.832 247.08C752.832 248.856 752.744 249.84 752.52 250.6C752.328 251.248 752.072 251.672 751.576 252.168C751.76 252.296 751.872 252.408 752.016 252.592C752.464 252.08 752.688 251.728 752.896 251.2C753.048 250.824 753.152 250.424 753.224 249.96H756.936ZM753.28 249.48C753.344 248.8 753.36 248.496 753.368 248.056H756.936V249.48H753.28ZM753.368 247.576V247.384L753.376 246.248H756.936V247.576H753.368Z" fill="white"/>
<path d="M125.248 253L129.152 245.278V245.21H124.652V244.273H130.243V245.261L126.356 253H125.248Z" fill="white"/>
<path d="M137.936 249.96V251.728C137.936 251.928 137.872 251.976 137.64 251.976C137.256 251.976 136.896 251.952 136.496 251.896C136.568 252.104 136.6 252.232 136.624 252.44C136.984 252.464 137.32 252.472 137.584 252.472C137.944 252.472 138.096 252.448 138.224 252.368C138.376 252.264 138.448 252.096 138.448 251.808V246.544C138.448 246.136 138.456 245.936 138.48 245.72C138.208 245.752 138 245.76 137.648 245.76H134.64C134.296 245.76 134.088 245.752 133.8 245.72C133.824 246.024 133.832 246.344 133.832 247.08C133.832 248.856 133.744 249.84 133.52 250.6C133.328 251.248 133.072 251.672 132.576 252.168C132.76 252.296 132.872 252.408 133.016 252.592C133.464 252.08 133.688 251.728 133.896 251.2C134.048 250.824 134.152 250.424 134.224 249.96H137.936ZM134.28 249.48C134.344 248.8 134.36 248.496 134.368 248.056H137.936V249.48H134.28ZM134.368 247.576V247.384L134.376 246.248H137.936V247.576H134.368Z" fill="white"/>
<path d="M357.433 244.273V253H356.376V245.381H356.325L354.194 246.795V245.722L356.376 244.273H357.433ZM362.789 253.119C362.147 253.119 361.6 252.945 361.148 252.595C360.697 252.243 360.352 251.733 360.113 251.065C359.874 250.395 359.755 249.585 359.755 248.636C359.755 247.693 359.874 246.888 360.113 246.22C360.354 245.55 360.701 245.038 361.153 244.686C361.607 244.331 362.153 244.153 362.789 244.153C363.425 244.153 363.969 244.331 364.421 244.686C364.876 245.038 365.222 245.55 365.461 246.22C365.702 246.888 365.823 247.693 365.823 248.636C365.823 249.585 365.704 250.395 365.465 251.065C365.227 251.733 364.881 252.243 364.43 252.595C363.978 252.945 363.431 253.119 362.789 253.119ZM362.789 252.182C363.425 252.182 363.92 251.875 364.272 251.261C364.624 250.648 364.8 249.773 364.8 248.636C364.8 247.881 364.719 247.237 364.558 246.706C364.398 246.175 364.168 245.77 363.867 245.491C363.569 245.213 363.21 245.074 362.789 245.074C362.158 245.074 361.665 245.385 361.31 246.007C360.955 246.626 360.778 247.503 360.778 248.636C360.778 249.392 360.857 250.034 361.016 250.562C361.175 251.091 361.404 251.493 361.702 251.768C362.004 252.044 362.366 252.182 362.789 252.182Z" fill="white"/>
<path d="M372.936 249.96V251.728C372.936 251.928 372.872 251.976 372.64 251.976C372.256 251.976 371.896 251.952 371.496 251.896C371.568 252.104 371.6 252.232 371.624 252.44C371.984 252.464 372.32 252.472 372.584 252.472C372.944 252.472 373.096 252.448 373.224 252.368C373.376 252.264 373.448 252.096 373.448 251.808V246.544C373.448 246.136 373.456 245.936 373.48 245.72C373.208 245.752 373 245.76 372.648 245.76H369.64C369.296 245.76 369.088 245.752 368.8 245.72C368.824 246.024 368.832 246.344 368.832 247.08C368.832 248.856 368.744 249.84 368.52 250.6C368.328 251.248 368.072 251.672 367.576 252.168C367.76 252.296 367.872 252.408 368.016 252.592C368.464 252.08 368.688 251.728 368.896 251.2C369.048 250.824 369.152 250.424 369.224 249.96H372.936ZM369.28 249.48C369.344 248.8 369.36 248.496 369.368 248.056H372.936V249.48H369.28ZM369.368 247.576V247.384L369.376 246.248H372.936V247.576H369.368Z" fill="white"/>
<path d="M819.849 251.21V250.341L823.684 244.273H824.315V245.619H823.889L820.991 250.205V250.273H826.156V251.21H819.849ZM823.957 253V250.946V250.541V244.273H824.963V253H823.957Z" fill="white"/>
<path d="M833.936 249.96V251.728C833.936 251.928 833.872 251.976 833.64 251.976C833.256 251.976 832.896 251.952 832.496 251.896C832.568 252.104 832.6 252.232 832.624 252.44C832.984 252.464 833.32 252.472 833.584 252.472C833.944 252.472 834.096 252.448 834.224 252.368C834.376 252.264 834.448 252.096 834.448 251.808V246.544C834.448 246.136 834.456 245.936 834.48 245.72C834.208 245.752 834 245.76 833.648 245.76H830.64C830.296 245.76 830.088 245.752 829.8 245.72C829.824 246.024 829.832 246.344 829.832 247.08C829.832 248.856 829.744 249.84 829.52 250.6C829.328 251.248 829.072 251.672 828.576 252.168C828.76 252.296 828.872 252.408 829.016 252.592C829.464 252.08 829.688 251.728 829.896 251.2C830.048 250.824 830.152 250.424 830.224 249.96H833.936ZM830.28 249.48C830.344 248.8 830.36 248.496 830.368 248.056H833.936V249.48H830.28ZM830.368 247.576V247.384L830.376 246.248H833.936V247.576H830.368Z" fill="white"/>
<path d="M204.002 253.119C203.416 253.119 202.899 253.016 202.45 252.808C202.004 252.598 201.656 252.31 201.406 251.943C201.156 251.574 201.033 251.153 201.036 250.682C201.033 250.312 201.105 249.972 201.253 249.659C201.401 249.344 201.602 249.081 201.858 248.871C202.117 248.658 202.405 248.523 202.723 248.466V248.415C202.306 248.307 201.973 248.072 201.726 247.712C201.479 247.348 201.357 246.935 201.36 246.472C201.357 246.028 201.469 245.632 201.696 245.283C201.923 244.933 202.236 244.658 202.634 244.456C203.034 244.254 203.49 244.153 204.002 244.153C204.507 244.153 204.959 244.254 205.357 244.456C205.754 244.658 206.067 244.933 206.294 245.283C206.524 245.632 206.641 246.028 206.644 246.472C206.641 246.935 206.514 247.348 206.264 247.712C206.017 248.072 205.689 248.307 205.28 248.415V248.466C205.595 248.523 205.879 248.658 206.132 248.871C206.385 249.081 206.587 249.344 206.737 249.659C206.888 249.972 206.965 250.312 206.968 250.682C206.965 251.153 206.837 251.574 206.584 251.943C206.334 252.31 205.986 252.598 205.54 252.808C205.097 253.016 204.584 253.119 204.002 253.119ZM204.002 252.182C204.396 252.182 204.737 252.118 205.024 251.99C205.311 251.862 205.533 251.682 205.689 251.449C205.845 251.216 205.925 250.943 205.928 250.631C205.925 250.301 205.84 250.01 205.672 249.757C205.504 249.504 205.276 249.305 204.986 249.161C204.699 249.016 204.371 248.943 204.002 248.943C203.629 248.943 203.297 249.016 203.004 249.161C202.715 249.305 202.486 249.504 202.318 249.757C202.154 250.01 202.073 250.301 202.075 250.631C202.073 250.943 202.148 251.216 202.301 251.449C202.458 251.682 202.681 251.862 202.97 251.99C203.26 252.118 203.604 252.182 204.002 252.182ZM204.002 248.04C204.314 248.04 204.591 247.977 204.833 247.852C205.077 247.727 205.269 247.553 205.408 247.328C205.547 247.104 205.618 246.841 205.621 246.54C205.618 246.244 205.548 245.987 205.412 245.768C205.276 245.547 205.087 245.376 204.845 245.257C204.604 245.135 204.323 245.074 204.002 245.074C203.675 245.074 203.389 245.135 203.145 245.257C202.901 245.376 202.712 245.547 202.578 245.768C202.445 245.987 202.379 246.244 202.382 246.54C202.379 246.841 202.446 247.104 202.583 247.328C202.722 247.553 202.914 247.727 203.158 247.852C203.402 247.977 203.683 248.04 204.002 248.04Z" fill="white"/>
<path d="M214.936 249.96V251.728C214.936 251.928 214.872 251.976 214.64 251.976C214.256 251.976 213.896 251.952 213.496 251.896C213.568 252.104 213.6 252.232 213.624 252.44C213.984 252.464 214.32 252.472 214.584 252.472C214.944 252.472 215.096 252.448 215.224 252.368C215.376 252.264 215.448 252.096 215.448 251.808V246.544C215.448 246.136 215.456 245.936 215.48 245.72C215.208 245.752 215 245.76 214.648 245.76H211.64C211.296 245.76 211.088 245.752 210.8 245.72C210.824 246.024 210.832 246.344 210.832 247.08C210.832 248.856 210.744 249.84 210.52 250.6C210.328 251.248 210.072 251.672 209.576 252.168C209.76 252.296 209.872 252.408 210.016 252.592C210.464 252.08 210.688 251.728 210.896 251.2C211.048 250.824 211.152 250.424 211.224 249.96H214.936ZM211.28 249.48C211.344 248.8 211.36 248.496 211.368 248.056H214.936V249.48H211.28ZM211.368 247.576V247.384L211.376 246.248H214.936V247.576H211.368Z" fill="white"/>
<path d="M436.393 244.273V253H435.337V245.381H435.286L433.155 246.795V245.722L435.337 244.273H436.393ZM441.972 244.273V253H440.915V245.381H440.864L438.733 246.795V245.722L440.915 244.273H441.972Z" fill="white"/>
<path d="M449.936 249.96V251.728C449.936 251.928 449.872 251.976 449.64 251.976C449.256 251.976 448.896 251.952 448.496 251.896C448.568 252.104 448.6 252.232 448.624 252.44C448.984 252.464 449.32 252.472 449.584 252.472C449.944 252.472 450.096 252.448 450.224 252.368C450.376 252.264 450.448 252.096 450.448 251.808V246.544C450.448 246.136 450.456 245.936 450.48 245.72C450.208 245.752 450 245.76 449.648 245.76H446.64C446.296 245.76 446.088 245.752 445.8 245.72C445.824 246.024 445.832 246.344 445.832 247.08C445.832 248.856 445.744 249.84 445.52 250.6C445.328 251.248 445.072 251.672 444.576 252.168C444.76 252.296 444.872 252.408 445.016 252.592C445.464 252.08 445.688 251.728 445.896 251.2C446.048 250.824 446.152 250.424 446.224 249.96H449.936ZM446.28 249.48C446.344 248.8 446.36 248.496 446.368 248.056H449.936V249.48H446.28ZM446.368 247.576V247.384L446.376 246.248H449.936V247.576H446.368Z" fill="white"/>
<path d="M514.05 244.273V253H512.993V245.381H512.942L510.811 246.795V245.722L512.993 244.273H514.05ZM516.56 253V252.233L519.44 249.08C519.778 248.71 520.057 248.389 520.276 248.116C520.494 247.841 520.656 247.582 520.761 247.341C520.869 247.097 520.923 246.841 520.923 246.574C520.923 246.267 520.849 246.001 520.702 245.777C520.557 245.553 520.358 245.379 520.105 245.257C519.852 245.135 519.568 245.074 519.253 245.074C518.918 245.074 518.625 245.143 518.375 245.283C518.128 245.419 517.936 245.611 517.8 245.858C517.666 246.105 517.599 246.395 517.599 246.727H516.594C516.594 246.216 516.712 245.767 516.947 245.381C517.183 244.994 517.504 244.693 517.911 244.477C518.32 244.261 518.778 244.153 519.287 244.153C519.798 244.153 520.251 244.261 520.646 244.477C521.041 244.693 521.351 244.984 521.575 245.351C521.8 245.717 521.912 246.125 521.912 246.574C521.912 246.895 521.854 247.209 521.737 247.516C521.624 247.82 521.425 248.159 521.141 248.534C520.859 248.906 520.469 249.361 519.969 249.898L518.009 251.994V252.062H522.065V253H516.56Z" fill="white"/>
<path d="M528.936 249.96V251.728C528.936 251.928 528.872 251.976 528.64 251.976C528.256 251.976 527.896 251.952 527.496 251.896C527.568 252.104 527.6 252.232 527.624 252.44C527.984 252.464 528.32 252.472 528.584 252.472C528.944 252.472 529.096 252.448 529.224 252.368C529.376 252.264 529.448 252.096 529.448 251.808V246.544C529.448 246.136 529.456 245.936 529.48 245.72C529.208 245.752 529 245.76 528.648 245.76H525.64C525.296 245.76 525.088 245.752 524.8 245.72C524.824 246.024 524.832 246.344 524.832 247.08C524.832 248.856 524.744 249.84 524.52 250.6C524.328 251.248 524.072 251.672 523.576 252.168C523.76 252.296 523.872 252.408 524.016 252.592C524.464 252.08 524.688 251.728 524.896 251.2C525.048 250.824 525.152 250.424 525.224 249.96H528.936ZM525.28 249.48C525.344 248.8 525.36 248.496 525.368 248.056H528.936V249.48H525.28ZM525.368 247.576V247.384L525.376 246.248H528.936V247.576H525.368Z" fill="white"/>
</g>
<g clip-path="url(#clip2_0_247)">
<path d="M55 54V239" stroke="#777777"/>
<path d="M132 54V239" stroke="#777777"/>
<path d="M209 54V239" stroke="#777777"/>
<path d="M287 54V239" stroke="#777777"/>
<path d="M364 54V239" stroke="#777777"/>
<path d="M441 54V239" stroke="#777777"/>
<path d="M519 54V239" stroke="#777777"/>
<path d="M596 54V239" stroke="#777777"/>
<path d="M673 54V239" stroke="#777777"/>
<path d="M751 54V239" stroke="#777777"/>
<path d="M828 54V239" stroke="#777777"/>
<path d="M906 54V239" stroke="#777777"/>
</g>
<!-- <g clip-path="url(#clip3_0_247)">
<path d="M55.233 79.329L132.64 91.8372L210.047 119.893L287.455 125.113L364.862 152.517L442.269 155.127L519.676 172.743L597.084 176.658L674.491 185.793L751.898 209.282L829.305 216.051L906.609 222.984" stroke="#8FE9D0" stroke-width="3"/>
<circle cx="132.733" cy="92" r="4" fill="#8FE9D0"/>
<circle cx="55.233" cy="79.5" r="4" fill="#8FE9D0"/>
<circle cx="209.733" cy="119.312" r="4" fill="#8FE9D0"/>
<circle cx="287.768" cy="125.536" r="4" fill="#8FE9D0"/>
<circle cx="364.194" cy="151.961" r="4" fill="#8FE9D0"/>
<circle cx="441.109" cy="155.573" r="4" fill="#8FE9D0"/>
<circle cx="519.047" cy="172.551" r="4" fill="#8FE9D0"/>
<circle cx="596.473" cy="176.551" r="4" fill="#8FE9D0"/>
<circle cx="673.388" cy="186.264" r="4" fill="#8FE9D0"/>
<circle cx="751" cy="209" r="4" fill="#8FE9D0"/>
<circle cx="906" cy="223" r="4" fill="#8FE9D0"/>
<circle cx="829" cy="216" r="4" fill="#8FE9D0"/>
</g> -->
<!-- <g clip-path="url(#clip4_0_247)">
<path d="M55.233 79.329L132.53 87.7641L209.827 158.353L287.291 109.054L364.182 130.347L441.784 146.151L519.404 125.838L596.426 159.129L673.52 169.357L749.953 185.409L828.75 203.437L905.5 213.542" stroke="#FFCC21" stroke-width="3"/>
<circle cx="132.733" cy="89" r="4" fill="#FFCC21"/>
<circle cx="55.233" cy="79.5" r="4" fill="#FFCC21"/>
<circle cx="209.733" cy="158" r="4" fill="#FFCC21"/>
<circle cx="828" cy="203" r="4" fill="#FFCC21"/>
<circle cx="906" cy="214" r="4" fill="#FFCC21"/>
<circle cx="287.801" cy="110" r="4" fill="#FFCC21"/>
<circle cx="363.59" cy="130" r="4" fill="#FFCC21"/>
<circle cx="440.865" cy="146" r="4" fill="#FFCC21"/>
<circle cx="596.901" cy="159" r="4" fill="#FFCC21"/>
<circle cx="672.689" cy="169" r="4" fill="#FFCC21"/>
<circle cx="751" cy="185" r="4" fill="#FFCC21"/>
<circle cx="519.626" cy="126" r="4" fill="#FFCC21"/>
</g> -->
</g>
<defs>
<clipPath id="clip0_0_247">
<rect width="960" height="304" fill="white"/>
</clipPath>
<clipPath id="clip1_0_247">
<rect width="866" height="26.625" fill="white" transform="translate(47 241)"/>
</clipPath>
<clipPath id="clip2_0_247">
<rect width="851" height="185" fill="white" transform="translate(55 54)"/>
</clipPath>
<clipPath id="clip3_0_247">
<rect width="858.767" height="151.5" fill="white" transform="translate(51.233 75.5)"/>
</clipPath>
<clipPath id="clip4_0_247">
<rect width="858.767" height="142.5" fill="white" transform="translate(51.233 75.5)"/>
</clipPath>
</defs>
</svg>
